<?xml version="1.0" encoding="UTF-8"?>
<svg xmlns="http://www.w3.org/2000/svg" viewBox="0 0 800 600">
  <g fill="#AE9773">
    <path d="M29 350V50h142v100h-42V150H86v50h43v100H86v50h43v-50h43v100H29z"/>
    <path d="M200 350V50h43v100h43V50h43v300h-43V250h-43v100h-43z"/>
    <path d="M350 350V50h43v100h43V50h43v300h-43V250h-43v100h-43z"/>
    <path d="M500 350V50h142v100h-42V150h-43v50h43v100h-43v50h43v-50h43v100H500z"/>
    <path d="M665 350V50h1l64 100h1V50h43v300h-1l-64-100h-1v100h-43z"/>
    <path d="M780 350V50h142v100h-42V150h-43v50h43v100h-43v50h43v-50h43v100H780z"/>
    
    <path d="M516 550c-108 0-196-14-196-31s88-31 196-31 196 14 196 31-88 31-196 31zm0-93c-130 0-235 28-235 62s105 62 235 62 235-28 235-62-105-62-235-62z"/>
  </g>
</svg> 